<svg width="61" height="62" viewBox="0 0 61 62" fill="none" xmlns="http://www.w3.org/2000/svg">
<path d="M3 4H58V58H3V4Z" fill="#FFFEFE"/>
<path fill-rule="evenodd" clip-rule="evenodd" d="M8.51413 0.0699881C7.0816 0.318995 5.15913 1.13397 4.0316 1.97C2.48591 3.11604 1.60217 4.22257 0.699021 6.14342L0 7.62987V54.3052L0.803562 56.0002C2.21669 58.981 5.02528 61.2235 8.05847 61.7938C8.79025 61.9313 17.1602 62.0075 30.691 61.9994C50.2685 61.9881 52.2878 61.9541 53.5811 61.6141C56.5097 60.8441 58.8305 58.8596 60.2245 55.9334L61 54.3052V7.62987L60.2913 6.12258C59.0124 3.40239 57.1719 1.65825 54.457 0.593403L53.0247 0.0315624L31.0389 0.00399146C18.9466 -0.0112051 8.81051 0.0183197 8.51413 0.0699881ZM18.142 4.6268C18.0629 4.70626 17.9982 7.24626 17.9982 10.2713V15.7709H29.2067V4.482H23.7462C20.7428 4.482 18.2209 4.54713 18.142 4.6268ZM32.1526 4.6268C32.0735 4.70626 32.0088 7.24626 32.0088 10.2713V15.7709H43.2173V4.482H37.7568C34.7534 4.482 32.2315 4.54713 32.1526 4.6268ZM46.0194 15.7709H57.2279V12.8697C57.2279 7.89906 56.6666 6.42412 54.3279 5.24747C53.0918 4.62571 52.9146 4.59858 49.532 4.51652L46.0194 4.43098V15.7709ZM19.5071 14.4683H27.9134V6.00166H19.5071V14.4683ZM33.5177 14.4777L41.8163 14.3598V6.11021L33.5177 5.99232V14.4777ZM4.20318 29.665H15.1961V18.376H4.20318V29.665ZM18.106 29.5564L29.2067 29.6723V18.376H17.9909L18.106 29.5564ZM32.1166 29.5564L43.2173 29.6723V18.376H32.0015L32.1166 29.5564ZM46.1272 29.5564H57.1201L57.2352 18.376H46.0121L46.1272 29.5564ZM5.49647 28.1453H13.9028V19.6786H5.49647V28.1453ZM19.5071 28.1453H27.6979V19.6786H19.5071V28.1453ZM33.5177 28.1453H41.7085V19.6786H33.5177V28.1453ZM47.5283 28.1453H55.7191V19.6786H47.5283V28.1453ZM4.84982 42.7195L6.03534 42.5821V32.3786L4.84982 32.2412V42.7195ZM48.0671 35.3832C47.7115 35.545 47.2828 35.9364 47.1146 36.2531C46.7557 36.9287 46.4505 37.0021 46.4505 36.4127C46.4505 35.5222 46.2173 35.3094 45.242 35.3094H44.2951V42.7112L46.9894 42.5821L47.1041 40.5197C47.239 38.0913 47.5162 37.4246 48.351 37.5216L48.9293 37.5889L49.0507 42.6906H51.8392V40.8384C51.8392 38.4449 52.2201 37.4209 53.0739 37.5196L53.6714 37.5889L53.7929 42.711L56.4735 42.5821L56.4522 39.8669C56.4274 36.6919 56.1582 35.9062 54.9155 35.3832C53.7968 34.9126 52.857 35.1574 52.0638 36.1268C51.6685 36.6098 51.4081 36.7941 51.4081 36.5907C51.4081 35.5799 49.3059 34.8201 48.0671 35.3832ZM10.3771 35.5326C7.96169 36.2616 7.27948 40.2511 9.2692 42.0107C10.583 43.1726 12.5901 43.1778 13.7373 42.0224C14.4206 41.3342 14.4354 40.88 13.7782 40.786C13.5064 40.7472 13.2376 40.9526 12.9969 41.3831C12.6882 41.9345 12.4979 42.0393 11.8053 42.0393C11.352 42.0393 10.7552 41.88 10.4793 41.6853C10.0159 41.3583 9.37632 40.1832 9.37632 39.6582C9.37632 39.518 10.2527 39.4342 11.7204 39.4342H14.0645L14.1856 38.8239C14.3324 38.085 14.0533 36.7307 13.6547 36.2466C13.0036 35.4557 11.626 35.1557 10.3771 35.5326ZM21.1756 35.6099C20.7299 35.7755 20.2296 36.0243 20.0638 36.1628C19.0066 37.0466 18.7177 39.9253 19.561 41.1731C20.2861 42.2462 21.0803 42.741 22.2393 42.8415C23.4895 42.95 24.6212 42.4386 25.107 41.5454C25.398 41.0105 25.3984 40.9196 25.1113 40.7346C24.6399 40.4309 24.2491 40.4741 24.2491 40.8295C24.2491 41.301 23.1891 42.0393 22.5122 42.0393C21.6597 42.0393 20.6383 41.0919 20.3572 40.0405C19.9821 38.6372 20.5066 36.9932 21.4931 36.4793C22.3682 36.0236 23.3378 36.272 23.7868 37.067C24.1616 37.7304 24.3782 37.8147 24.8835 37.4925C25.1333 37.3334 25.1458 37.1864 24.9473 36.7477C24.4291 35.602 22.645 35.0639 21.1756 35.6099ZM27.2023 35.4466C27.1193 35.5304 27.0512 37.1944 27.0512 39.1448V42.6906H28.5008L28.653 40.791C28.7366 39.7464 28.9834 38.4846 29.2011 37.9875C29.799 36.6226 30.774 36.2366 31.5777 37.0462C31.961 37.4322 32.0088 37.7697 32.0088 40.0855V42.6906H33.5502L33.4099 36.5753L32.7059 35.9422C31.3488 34.7222 29.3559 35.2395 28.7334 36.9737L28.4523 37.7565L28.2324 36.5894C28.0255 35.4898 27.6134 35.0326 27.2023 35.4466ZM36.8587 35.6103C35.8225 36.0651 35.3341 37.0173 35.5966 38.0708C35.7331 38.6188 36.1288 38.6859 37.1371 38.332C37.6247 38.1607 37.8211 37.9425 37.8698 37.5179C37.9228 37.0557 38.0659 36.9229 38.5725 36.8647C39.3439 36.7763 39.7685 37.2693 39.7685 38.2532V38.9429L38.1459 39.0478C36.1665 39.1756 35.4576 39.6784 35.4576 40.9539C35.4576 41.9618 36.1782 42.6837 37.3413 42.8408C38.2479 42.9633 39.4791 42.4859 39.691 41.9297C39.7772 41.7037 39.9354 41.7762 40.3078 42.2124C40.718 42.6926 40.9898 42.7992 41.8055 42.7992C42.4566 42.7992 42.8727 42.6863 43.0063 42.4735C43.3451 41.9336 43.246 41.6054 42.6784 41.388C42.1594 41.1894 42.1396 41.1104 42.1396 39.2547C42.1396 37.608 42.068 37.2205 41.6481 36.5929C41.3778 36.1891 40.917 35.7364 40.6243 35.5871C39.9313 35.2339 37.6844 35.2478 36.8587 35.6103ZM10.1499 36.8458C9.84299 37.2131 9.59187 37.5958 9.59187 37.6964C9.59187 37.7969 9.53303 38.0335 9.46104 38.2224C9.34787 38.5191 9.58217 38.5658 11.1854 38.5658H13.0406V37.806C13.0406 36.1724 11.2182 35.5669 10.1499 36.8458ZM38.4957 40.0577C37.7607 40.2648 37.4529 40.8236 37.8252 41.2752C38.3826 41.9516 39.7685 41.2283 39.7685 40.2611C39.7685 39.8512 39.4239 39.7963 38.4957 40.0577ZM4.20318 50.0445C4.20318 54.0073 4.42045 54.9284 5.65554 56.203C6.95314 57.542 7.8843 57.7787 11.8551 57.7787H15.3039L15.3742 55.7163C15.4127 54.582 15.378 52.0665 15.2972 50.1261L15.1502 46.5983H4.20318V50.0445ZM18.106 57.7787L29.2067 57.8946V46.5983H17.9909L18.106 57.7787ZM32.1166 57.7787L43.2173 57.8946V46.5983H32.0015L32.1166 57.7787ZM19.5071 56.3676H27.6979V48.118H19.5071V56.3676ZM33.5177 56.3676H41.7085V48.118H33.5177V56.3676Z" fill="#EB5353"/>
</svg>
